# xmcd
# 
# Track frame offsets:
#     182
#     14712
#     29987
#     34547
#     48760
#     62495
#     75020
#     89272
#     100502
#     106122
#     123662
#     131505
#     150545
#     166497
#     175062
#     177662
#     187052
#     195937
#     198392
#     202235
#     226172
#     228760
#     230705
#     234580
#     245625
#     251337
#     256962
#     259942
#     262707
#     267955
#     276312
#     279670
#     282365
#     297702
#     304697
#     309687
# 
# Disc length: 4147
# 
# Revision: 8
# Processed by: cddbd v1.5.2PL0 Copyright (c) Steve Scherf et al.
# Submitted via: fre:ac v1.0.31
# 
DISCID=04103124
DTITLE=Various Artist - The Wizard of Oz - The Deluxe Edition Disc 2 of 2
DYEAR=1939
DGENRE=Soundtrack
TTITLE0=The M-G-M Studio Orchestra - The Haunted Forest {extended version} [1939]
TTITLE1=Judy Garland - The Jitterbug {outtake} [1939]
TTITLE2=The M-G-M Studio Orchestra - The Jitterbug's Attack {extended version} [1939]
TTITLE3=The M-G-M Studio Orchestra - The Witch's Castle {extended version} [1939]
TTITLE4=Judy Garland - Toto Brings News {extended version} • Over the Rainbow (reprise) {outtake} [1939]
TTITLE5=The M-G-M Studio Orchestra - March of the Winkies {extended version} [1939]
TTITLE6=The M-G-M Studio Orchestra - Dorothy's Rescue {extended version} [1939]
TTITLE7=The M-G-M Studio Orchestra - On the Castle Wall {extended version} [1939]
TTITLE8=Kim Darby - Ding-Dong! Emerald City {outtake} [1939]
TTITLE9=The M-G-M Studio Orchestra - The Wizard's Exposé {extended version} • Emerald City Graduation Exercises [1939]
TTITLE10=The M-G-M Studio Orchestra - Fill-In Awards • I Was Floating Through Space • Balloon Ascension • Second Cheer [1939]
TTITLE11=The M-G-M Studio Orchestra - I Hereby Decree [1939]
TTITLE12=The M-G-M Studio Orchestra - Delirious Escape {extended version} • Delirious Escape Continued • End Title [1939]
TTITLE13=The M-G-M Studio Orchestra and Chorus - Supplemental Material: Main Title {alternate take with unused tag} [1939]
TTITLE14=Judy Garland - Supplemental Material: Over the Rainbow {partial take} [1938]
TTITLE15=Judy Garland - Supplemental Material: Over the Rainbow {alternate take} [1938]
TTITLE16=The M-G-M Studio Orchestra - Supplemental Material: Cyclone {final film version} [1939]
TTITLE17=The M-G-M Studio Orchestra - Supplemental Material: Munchkinland Insert {alternate tag} [1939]
TTITLE18=The M-G-M Studio Orchestra - Supplemental Material: I'm Not a Witch {alternate version} [1939]
TTITLE19=Harold Arlen [piano] - Supplemental Material: Munchkinland Musical Sequence {rehearsal demo} [1938]
TTITLE20=The M-G-M Studio Chorus - Supplemental Material: Ding-Dong! The Witch is Dead {alternate, a cappella choir version} [1939]
TTITLE21=Three Unidentified “Singer Midgets” - Supplemental Material: The Lollipop Guild {original Munchkin actors' voices} [1938]
TTITLE22=The M-G-M Studio Orchestra - Supplemental Material: Follow the Yellow Brick Road • You're Off to See the Wizard {orchestral angles} [1938]
TTITLE23=The M-G-M Studio Orchestra - Supplemental Material: If I Only Had a Brain {unused dance music} [1938]
TTITLE24=Buddy Ebsen - Supplemental Material: If I Only Had a Heart {unused version} [1938]
TTITLE25=The M-G-M Studio Orchestra - Supplemental Material: The Lion's Confession {outtake, alternate arrangement} [1939]
TTITLE26=The M-G-M Studio Orchestra and Chorus - Supplemental Material: Poppies {alternate version with heavenly choir} [1939]
TTITLE27=Harold Arlen - Supplemental Material: Optimistic Voices {rehearsal demo} [1938]
TTITLE28=The Debutantes - Supplemental Material: Optimistic Voices {alternate vocal arrangement} [1939]
TTITLE29=The M-G-M Studio Orchestra - Supplemental Material: The Merry Old Land of Oz {orchestral angles} [1939]
TTITLE30=Bert Lahr - Supplemental Material: If I Were King of the Forest {partial take, alternate vocal tag} [1938]
TTITLE31=The M-G-M Studio Orchestra - Supplemental Material: If I Were King of the Forest {alternate vocal tag} [1938]
TTITLE32=Donna Massin - Supplemental Material: The Jitterbug {choreography rehearsal} [1939]
TTITLE33=Judy Garland - Supplemental Material: Over the Rainbow (reprise) {outtake, alternate version} [1938]
TTITLE34=The M-G-M Studio Orchestra and Chorus - Supplemental Material: Ding-Dong! Emerald City {alternate version} [1939]
TTITLE35=The M-G-M Studio Orchestra - Supplemental Material: End Title {alternate version} [1939]
EXTD=
EXTT0=
EXTT1=
EXTT2=
EXTT3=
EXTT4=
EXTT5=
EXTT6=
EXTT7=
EXTT8=
EXTT9=
EXTT10=
EXTT11=
EXTT12=
EXTT13=
EXTT14=
EXTT15=
EXTT16=
EXTT17=
EXTT18=
EXTT19=
EXTT20=
EXTT21=
EXTT22=
EXTT23=
EXTT24=
EXTT25=
EXTT26=
EXTT27=
EXTT28=
EXTT29=
EXTT30=
EXTT31=
EXTT32=
EXTT33=
EXTT34=
EXTT35=
PLAYORDER=
